<svg t="1716732651083" class="icon" viewBox="0 0 1451 1024" version="1.1" xmlns="http://www.w3.org/2000/svg" p-id="8963" width="200" height="200"><path d="M1363.701077 391.618348C1359.025212 385.243234 1352.041847 381.063221 1344.29399 379.933274L1265.690539 368.444163 1251.360282 289.567545C1248.41466 273.323176 1232.982912 262.597371 1216.994185 265.576323L929.154935 319.254333 705.258115 286.517479C689.097766 284.224399 674.159039 295.501743 671.823448 311.888344L663.733912 368.723884 539.421855 391.929675C531.702082 393.366208 524.885652 397.857551 520.431338 404.371734 515.997305 410.884337 514.309189 418.939359 515.722714 426.755746L604.935392 917.664742C606.358276 925.446366 610.78763 932.371439 617.223375 936.859622 622.197229 940.326895 628.035424 942.141133 633.973471 942.141133 635.770799 942.141133 637.557205 941.968879 639.32489 941.629099L1035.301811 867.790626 1269.906142 902.103083C1271.344631 902.275345 1272.770637 902.414413 1274.151398 902.414413 1288.586189 902.414413 1301.222084 891.653837 1303.345493 876.77015L1311.973291 816.201831 1316.894097 815.27733C1332.935876 812.293638 1343.531059 796.700371 1340.580762 780.45284L1327.384755 707.916569 1369.281843 413.798494C1370.39581 405.945759 1368.401894 397.963435 1363.701077 391.618348L1363.701077 391.618348 1363.701077 391.618348ZM1293.953212 523.901157 1267.559637 709.081283 1259.601152 765.162999 1250.703445 827.613507 1249.108941 838.619031 1216.961425 833.925406 1034.148838 807.217569 668.553314 753.779771 716.123216 419.795904 725.006883 357.305888 726.038162 350.003112 747.478162 353.125874 930.286063 379.82897 1215.321677 421.510578 1276.99561 430.490101 1306.618752 434.842372 1293.953212 523.901157 1293.953212 523.901157 1293.953212 523.901157ZM1198.655829 329.779435 1204.030643 359.433035 1111.9488 345.960592 1198.655829 329.779435 1198.655829 329.779435 1198.655829 329.779435ZM579.133129 445.334287 654.834645 431.210741 620.454509 672.641681 579.133129 445.334287 579.133129 445.334287 579.133129 445.334287ZM657.661693 877.422831 645.581215 810.852365 852.486106 841.089112 657.661693 877.422831 657.661693 877.422831 657.661693 877.422831ZM848.240856 559.591676C879.260365 564.113044 908.003567 542.309018 912.49065 510.912298 916.957449 479.507674 895.465958 450.375589 864.433971 445.851059 833.433183 441.291763 804.671256 463.091046 800.20134 494.492508 795.697098 525.925578 817.244751 555.029219 848.240856 559.591676L848.240856 559.591676 848.240856 559.591676ZM1180.39703 599.659751 1126.566127 656.187124 1058.734165 520.681993 929.78525 670.721562C929.78525 670.721562 760.285682 601.614639 713.665931 721.453809L1151.195136 785.380359 1215.880218 794.8087 1212.121745 773.997132 1180.39703 599.659751 1180.39703 599.659751 1180.39703 599.659751ZM641.076974 844.137598 348.065724 838.619033C223.288731 838.619033 105.85863 700.722838 105.85863 574.333139 105.85863 447.957661 196.115069 329.779436 320.890501 329.779436L371.5558 329.920086C408.413504 197.793732 540.187904 96.822306 684.79167 96.822306 819.538214 96.822306 955.927629 196.161235 999.771819 316.749488 999.895074 317.089262 1090.251366 306.385583 1090.251366 306.385583 1035.641924 130.832919 875.93094 3.474468 684.791668 3.474468 520.333047 3.474468 378.553207 98.25252 307.663288 236.12975 137.528733 253.364995 4.250318 399.837724 4.250318 577.923682 4.250318 767.481367 157.38359 922.592265 344.520995 922.592265L663.421879 922.592265 641.076974 844.137598Z" fill="#ffffff" p-id="8964"></path></svg>