<svg t="1716732537180" class="icon" viewBox="0 0 1045 1024" version="1.1" xmlns="http://www.w3.org/2000/svg" p-id="5805" width="200" height="200"><path d="M240.554667 106.666667a21.333333 21.333333 0 0 1 21.333333 21.333333v21.333333h512V128a21.333333 21.333333 0 0 1 21.333333-21.333333h106.666667a21.333333 21.333333 0 0 1 21.333333 21.333333v106.666667a21.333333 21.333333 0 0 1-21.333333 21.333333h-21.333333v512h21.333333a21.333333 21.333333 0 0 1 21.333333 21.333333v106.666667a21.333333 21.333333 0 0 1-21.333333 21.333333h-106.666667a21.333333 21.333333 0 0 1-21.333333-21.333333v-21.333333H479.637333a10.666667 10.666667 0 0 1-7.530666-18.218667L517.888 810.666667h256v-21.333334a21.333333 21.333333 0 0 1 21.333333-21.333333h21.333334V256h-21.333334a21.333333 21.333333 0 0 1-21.333333-21.333333v-21.333334h-512v21.333334a21.333333 21.333333 0 0 1-21.333333 21.333333h-21.333334v256L173.44 557.781333a10.666667 10.666667 0 0 1-18.218667-7.530666V256h-21.333333a21.333333 21.333333 0 0 1-21.333333-21.333333V128a21.333333 21.333333 0 0 1 21.333333-21.333333h106.666667z m297.92 240.917333L681.557333 490.666667a21.333333 21.333333 0 0 1 0 30.165333L337.856 864.533333a32 32 0 0 1-22.613333 9.386667h-138.666667a21.333333 21.333333 0 0 1-21.333333-21.333333v-138.666667c0-8.490667 3.349333-16.64 9.365333-22.634667l343.68-343.701333a21.333333 21.333333 0 0 1 30.186667 0z m-15.082667 75.413333L219.221333 727.168v82.730667h82.773334l304.128-304.149334-82.730667-82.752z" fill="#000000" p-id="5806"></path></svg>