<svg t="1716732848906" class="icon" viewBox="0 0 1024 1024" version="1.1" xmlns="http://www.w3.org/2000/svg" p-id="13022" width="200" height="200"><path d="M511.146667 286.08a150.762667 150.762667 0 0 0-147.626667 121.6 150.613333 150.613333 0 0 0 90.453333 168.533333 150.826667 150.826667 0 0 0 183.04-55.68 150.592 150.592 0 0 0-18.986666-190.293333 150.058667 150.058667 0 0 0-106.88-44.16zM512 60.16c97.92 0 191.786667 39.68 259.84 109.653333 143.36 147.626667 143.36 381.653333 0 529.28L512 963.84 252.16 699.093333c-143.36-147.626667-143.36-381.653333 0-529.28C320.213333 99.626667 414.08 60.16 512 60.16z" fill="#148AFF" p-id="13023"></path></svg>